# xmcd
#
# Track frame offsets:
#	180
#	19070
#	39531
#	56213
#	72946
#	90555
#	115199
#	136056
#	152641
#
# Disc length: 2323 seconds
#
# Revision: 4
# Processed by: cddbd v1.5.2PL0 Copyright (c) Steve Scherf et al.
# Submitted via: EasyCDDAExtractor 10.0.2.1
#
DISCID=71091109
DTITLE=The Way Of All Flesh - Esprit d'Escalier
DYEAR=2005
DGENRE=Gothic Rock
TTITLE0=Final Resolve
TTITLE1=Sleepwalking
TTITLE2=Fragile World
TTITLE3=Never Again
TTITLE4=Andromeda
TTITLE5=So Cold
TTITLE6=Esprit d'Escalier
TTITLE7=White Wedding
TTITLE8=Blood and Sand
EXTD=
EXTT0=
EXTT1=
EXTT2=
EXTT3=
EXTT4=
EXTT5=
EXTT6=
EXTT7=
EXTT8=
PLAYORDER=
